<?xml version="1.0" standalone="no"?><!DOCTYPE svg PUBLIC "-//W3C//DTD SVG 1.1//EN" "http://www.w3.org/Graphics/SVG/1.1/DTD/svg11.dtd"><svg class="icon" height="512" viewBox="0 0 1024 1024" version="1.1" xmlns="http://www.w3.org/2000/svg"><path d="M421.9648 558.78144c-0.01024-0.54784-0.0512-1.09056-0.1536-2.76992-0.0512-0.49664-0.14336-0.9984-0.41984-2.72896-0.08192-0.41984-0.19456-0.82944-0.66048-2.66752-0.09728-0.31744-0.22016-0.61952-0.9216-2.5856-0.09216-0.24576-0.20992-0.47104-1.16224-2.49344-0.1024-0.18944-0.21504-0.37376-1.50016-2.52928L117.5552 93.48096h768.39424L601.9072 519.68h63.9744l291.85536-437.888c0.06144-0.09216 0.10752-0.18432 0.16384-0.2816 0.28672-0.44032 0.55296-0.90624 0.81408-1.36704 0.18944-0.32256 0.37888-0.64 0.55296-0.96768 0.24576-0.46592 0.45568-0.9472 0.67584-1.42848 0.1536-0.34304 0.32256-0.6912 0.47104-1.03936 0.1792-0.45056 0.32768-0.91648 0.49152-1.37728 0.13824-0.39936 0.29184-0.7936 0.4096-1.19808 0.12288-0.41472 0.22016-0.83968 0.32256-1.25952 0.11776-0.46592 0.25088-0.92672 0.33792-1.39776 0.08192-0.37376 0.12288-0.76288 0.1792-1.14688 0.09216-0.52736 0.17408-1.04448 0.2304-1.57696 0.04096-0.36352 0.0512-0.73728 0.0768-1.1008 0.03584-0.55296 0.0768-1.1008 0.08192-1.65376 0-0.10752 0.01536-0.20992 0.01536-0.31744 0-0.30208-0.03584-0.59392-0.04608-0.896-0.01536-0.50176-0.03072-1.00352-0.0768-1.50016-0.03072-0.47616-0.09728-0.94208-0.1536-1.408-0.05632-0.41472-0.10752-0.82432-0.17408-1.23392a24.3968 24.3968 0 0 0-0.32256-1.52576 19.46624 19.46624 0 0 0-0.256-1.08032c-0.13312-0.512-0.29696-1.00864-0.45568-1.50016a20.23936 20.23936 0 0 0-0.91648-2.43712 16.14848 16.14848 0 0 0-0.51712-1.13664 19.67104 19.67104 0 0 0-0.60928-1.1776 23.17824 23.17824 0 0 0-0.68096-1.19808l-0.65536-1.01888a32.62976 32.62976 0 0 0-0.83456-1.18272 19.47136 19.47136 0 0 0-0.74752-0.94208c-0.29696-0.36352-0.5888-0.72192-0.91136-1.06496a21.11488 21.11488 0 0 0-0.94208-0.9728c-0.29184-0.28672-0.57344-0.57344-0.88064-0.84992a27.17696 27.17696 0 0 0-1.25952-1.06496c-0.18944-0.14848-0.3584-0.31744-0.54784-0.45568l-0.19968-0.13824a30.1312 30.1312 0 0 0-1.44896-0.98816c-0.26112-0.16896-0.52224-0.34816-0.77824-0.50688-0.44032-0.26112-0.896-0.4864-1.34144-0.72192-0.33792-0.17408-0.67072-0.3584-1.00864-0.51712-0.3584-0.16896-0.73216-0.30208-1.1008-0.45056-0.44544-0.1792-0.89088-0.36864-1.34656-0.52736-0.27136-0.09216-0.54272-0.15872-0.81408-0.24064-0.5632-0.16384-1.13152-0.3328-1.69984-0.4608-0.20992-0.0512-0.43008-0.0768-0.64-0.11776a27.05408 27.05408 0 0 0-1.93024-0.31232c-0.19968-0.0256-0.4096-0.03072-0.6144-0.0512a21.61152 21.61152 0 0 0-1.98656-0.10752l-0.19456-0.01024H71.54176c-0.7424 0-1.46944 0.05632-2.18112 0.11776a24.76544 24.76544 0 0 0-17.41824 5.02272c-11.74528 8.8832-14.49984 26.24-6.15424 38.74816l324.02432 486.17472v387.30752l0.01536 0.33792c0.01024 0.58368 0.04096 1.16736 0.08192 1.75104 0.0256 0.34816 0.04608 0.71168 0.08192 1.05984 0.05632 0.52224 0.13312 1.01376 0.21504 1.52576 0.07168 0.4352 0.13824 0.85504 0.21504 1.27488 0.09216 0.4096 0.19456 0.80896 0.29696 1.21856 0.128 0.512 0.26112 1.01376 0.41472 1.52064 0.1024 0.32768 0.22528 0.65024 0.3328 0.97792 0.18944 0.54784 0.38912 1.1008 0.61952 1.6384l0.11264 0.32256c0.16384 0.36864 0.34816 0.72192 0.52224 1.08032 0.10752 0.21504 0.19968 0.44544 0.31744 0.66048 0.36352 0.72192 0.75776 1.40288 1.1776 2.0736 0.06144 0.10752 0.14336 0.22016 0.22016 0.3328 0.37376 0.58368 0.77824 1.152 1.19296 1.69984 0.09216 0.11776 0.18432 0.25088 0.2816 0.36352a26.94144 26.94144 0 0 0 3.33312 3.54816c0.0768 0.07168 0.16896 0.128 0.24576 0.19968a26.25536 26.25536 0 0 0 3.51744 2.54976c0.19456 0.11776 0.38912 0.24576 0.58368 0.3584a22.31808 22.31808 0 0 0 2.80576 1.37216c0.35328 0.13824 0.7168 0.2816 1.06496 0.4096a26.27072 26.27072 0 0 0 2.96448 0.89088c0.27136 0.06144 0.55808 0.10752 0.83456 0.15872 0.50688 0.1024 1.01888 0.1792 1.53088 0.25088l0.80896 0.09216c0.74752 0.06656 1.50528 0.11776 2.25792 0.11776h0.05632a25.48736 25.48736 0 0 0 5.00224-0.52224c0.11264-0.03072 0.23552-0.04608 0.36352-0.07168 0.67584-0.1536 1.36704-0.34304 2.03776-0.5632l0.58368-0.1792c0.60928-0.22016 1.21856-0.4608 1.83296-0.72192 0.2304-0.1024 0.45056-0.20992 0.68608-0.32256l0.384-0.16896 69.17632-33.96608v-61.21984l-54.00064 26.51648-0.01536-353.03936zM983.14752 568.19712l-36.20352-36.20864-181.0176 181.02272-181.02272-181.02272-36.20864 36.20864 181.0176 181.0176-181.0176 181.02272 36.20864 36.20352 181.02272-181.02272 181.0176 181.02272 36.20352-36.20352-181.02272-181.02272z" /></svg>